<svg width="88" height="88" viewBox="0 0 88 88" fill="none" xmlns="http://www.w3.org/2000/svg">
<circle cx="44" cy="44" r="44" fill="#60A692"/>
<path d="M56 20H32C25.3726 20 20 25.3726 20 32V56C20 62.6274 25.3726 68 32 68H56C62.6274 68 68 62.6274 68 56V32C68 25.3726 62.6274 20 56 20Z" stroke="white" stroke-width="2" stroke-linecap="round" stroke-linejoin="round"/>
<path d="M53.6001 42.4877C53.8963 44.4851 53.5551 46.525 52.6251 48.3173C51.6951 50.1096 50.2236 51.5631 48.42 52.4709C46.6163 53.3787 44.5724 53.6947 42.5788 53.3739C40.5852 53.0531 38.7435 52.1119 37.3157 50.6841C35.8879 49.2563 34.9466 47.4146 34.6258 45.421C34.305 43.4274 34.621 41.3835 35.5289 39.5798C36.4367 37.7762 37.8901 36.3047 39.6824 35.3747C41.4748 34.4447 43.5147 34.1036 45.5121 34.3997C47.5495 34.7019 49.4357 35.6513 50.8922 37.1077C52.3486 38.5641 53.298 40.4503 53.6001 42.4877Z" stroke="white" stroke-width="2" stroke-linecap="round" stroke-linejoin="round"/>
<path d="M57.2002 30.7998H57.2242" stroke="white" stroke-width="2" stroke-linecap="round" stroke-linejoin="round"/>
</svg>
