<svg width="72" height="72" viewBox="0 0 72 72" fill="none" xmlns="http://www.w3.org/2000/svg">
<circle cx="36" cy="36" r="36" fill="#F9C9DE"/>
<path d="M35.5312 44C33.7604 43.8958 32.1458 43.401 30.6875 42.5156C29.2812 41.5781 28.1354 40.3802 27.25 38.9219C26.4167 37.4115 26 35.7708 26 34C26 32.1771 26.4427 30.5104 27.3281 29C28.2656 27.4896 29.4896 26.2917 31 25.4062C32.5104 24.4688 34.1771 24 36 24C37.7708 24 39.3854 24.4427 40.8438 25.3281C42.3542 26.1615 43.5521 27.3073 44.4375 28.7656C45.375 30.1719 45.8958 31.7604 46 33.5312L42.4844 32.4375C42.1198 30.9792 41.3385 29.7812 40.1406 28.8438C38.9427 27.8542 37.5625 27.3594 36 27.3594C34.75 27.3594 33.6302 27.6719 32.6406 28.2969C31.651 28.8698 30.8438 29.651 30.2188 30.6406C29.6458 31.6302 29.3594 32.75 29.3594 34C29.3594 35.5625 29.8281 36.9427 30.7656 38.1406C31.7552 39.3385 32.9792 40.1198 34.4375 40.4844L35.5312 44ZM52.6406 34C52.6406 34.2604 52.6406 34.5208 52.6406 34.7812C52.6406 34.9896 52.6146 35.224 52.5625 35.4844L49.2812 34.5469C49.3333 34.4427 49.3594 34.3646 49.3594 34.3125C49.3594 34.2083 49.3594 34.1042 49.3594 34C49.3594 32.1771 48.9948 30.4583 48.2656 28.8438C47.5885 27.2292 46.625 25.8229 45.375 24.625C44.1771 23.375 42.7708 22.4115 41.1562 21.7344C39.5417 21.0052 37.8229 20.6406 36 20.6406C34.1771 20.6406 32.4583 21.0052 30.8438 21.7344C29.2292 22.4115 27.7969 23.375 26.5469 24.625C25.349 25.8229 24.3854 27.2292 23.6562 28.8438C22.9792 30.4583 22.6406 32.1771 22.6406 34C22.6406 35.8229 22.9792 37.5417 23.6562 39.1562C24.3854 40.7708 25.349 42.2031 26.5469 43.4531C27.7969 44.651 29.2292 45.6146 30.8438 46.3438C32.4583 47.0208 34.1771 47.3594 36 47.3594C36.1042 47.3594 36.1823 47.3594 36.2344 47.3594C36.3385 47.3594 36.4427 47.3333 36.5469 47.2812L37.4844 50.5625C37.224 50.6146 36.9635 50.6406 36.7031 50.6406C36.4948 50.6406 36.2604 50.6406 36 50.6406C33.7083 50.6406 31.5469 50.224 29.5156 49.3906C27.5365 48.5052 25.7656 47.3073 24.2031 45.7969C22.6927 44.2344 21.4948 42.4635 20.6094 40.4844C19.776 38.4531 19.3594 36.2917 19.3594 34C19.3594 31.7083 19.776 29.5729 20.6094 27.5938C21.4948 25.5625 22.6927 23.7917 24.2031 22.2812C25.7656 20.7188 27.5365 19.5208 29.5156 18.6875C31.5469 17.8021 33.7083 17.3594 36 17.3594C38.2917 17.3594 40.4271 17.8021 42.4062 18.6875C44.4375 19.5208 46.2083 20.7188 47.7188 22.2812C49.2812 23.7917 50.4792 25.5625 51.3125 27.5938C52.1979 29.5729 52.6406 31.7083 52.6406 34ZM46.3906 41.1094L52.6406 39L36 34L41 50.6406L43.1094 44.3906L50.2188 51.5L53.5 48.2188L46.3906 41.1094Z" fill="#591414"/>
</svg>
