<svg width="88" height="88" viewBox="0 0 88 88" fill="none" xmlns="http://www.w3.org/2000/svg">
<circle cx="44" cy="44" r="44" fill="#60A692"/>
<path d="M58.0312 48.75C58.5938 48.75 59.0625 48.9375 59.4375 49.3125C59.8125 49.6875 60 50.1562 60 50.7188V57.6562C60 59.2188 59.3438 60 58.0312 60C48.7188 60 40.7188 56.6562 34.0312 49.9688C27.3438 43.2812 24 35.2812 24 25.9688C24 24.6562 24.7812 24 26.3438 24H33.2812C33.8438 24 34.3125 24.1875 34.6875 24.5625C35.0625 24.9375 35.25 25.4062 35.25 25.9688C35.25 28.4062 35.625 30.75 36.375 33C36.625 33.8125 36.4688 34.5 35.9062 35.0625L32.0625 38.4375C34.9375 44.4375 39.5312 48.9688 45.8438 52.0312L48.9375 48.0938C49.3125 47.7188 49.7812 47.5312 50.3438 47.5312C50.6562 47.5312 50.875 47.5625 51 47.625C53.25 48.375 55.5938 48.75 58.0312 48.75Z" fill="white"/>
</svg>
